<svg width="78" height="78" viewBox="0 0 78 78" fill="none" xmlns="http://www.w3.org/2000/svg">
<path d="M68.2499 19.5H43.5825L54.275 8.8075L52 6.5L39 19.5L26 6.5L23.6925 8.8075L34.4175 19.5H9.74999C6.175 19.5 3.25 22.3925 3.25 26V65C3.25 68.575 6.175 71.5 9.74999 71.5H68.2499C71.8249 71.5 74.7499 68.575 74.7499 65V26C74.7499 22.3925 71.8249 19.5 68.2499 19.5ZM68.2499 65H9.74999V26H68.2499V65Z" fill="black"/>
<path d="M39 53.405L49.815 59L46.945 48.455L56.5 41.36L43.9175 40.445L39 30.5L34.0825 40.445L21.5 41.36L31.055 48.455L28.185 59L39 53.405Z" fill="black"/>
</svg>
