<svg width="36" height="36" viewBox="0 0 36 36" fill="none" xmlns="http://www.w3.org/2000/svg">
<path d="M31.5 9H20.115L25.05 4.065L24 3L18 9L12 3L10.935 4.065L15.885 9H4.5C2.85 9 1.5 10.335 1.5 12V30C1.5 31.65 2.85 33 4.5 33H31.5C33.15 33 34.5 31.65 34.5 30V12C34.5 10.335 33.15 9 31.5 9ZM31.5 30H4.5V12H31.5V30Z" fill="#EDF6FF"/>
<path d="M18 24.6485L22.9915 27.2308L21.6669 22.3639L26.0769 19.0892L20.2696 18.6669L18 14.0769L15.7303 18.6669L9.92303 19.0892L14.333 22.3639L13.0084 27.2308L18 24.6485Z" fill="#EDF6FF"/>
</svg>
